<?xml version="1.0" standalone="no"?>
<svg viewBox="0 0 200 200" xmlns="http://www.w3.org/2000/svg">
  <path fill="#ef5f3c"  d="M44.5,-77.7C57.2,-69.7,66.8,-56.9,74.9,-43.2C82.9,-29.4,89.4,-14.7,89.6,0.1C89.9,15,83.9,30,76,44C68.2,58.1,58.4,71.2,45.4,78.7C32.4,86.2,16.2,88.1,-0.1,88.3C-16.5,88.6,-33,87.2,-46.9,80.2C-60.8,73.2,-72,60.6,-78.8,46.3C-85.7,32,-88.1,16,-87.4,0.4C-86.8,-15.2,-83,-30.5,-75.4,-43.4C-67.7,-56.4,-56.3,-67,-43.1,-74.7C-29.9,-82.4,-14.9,-87.2,0.5,-88C15.9,-88.8,31.8,-85.7,44.5,-77.7Z" transform="translate(100 100)" />
</svg>
