<svg width="547" height="388" xmlns="http://www.w3.org/2000/svg" stroke="null" style="vector-effect: non-scaling-stroke;">
 <g id="Layer_1">
  <title>Layer 1</title>
  <g transform="rotate(90 251.528 412.108)" stroke="null">
   <path stroke="null" d="m-468.47184,189.3413l48,-11.30686c48,-12.1602 144,-33.4939 240,-11.52019c96,22.82705 192,91.09487 288,102.40172c96,12.1602 192,-34.77392 288,-34.13391c96,-0.64001 192,46.29411 288,68.26781c96,22.82705 192,22.82705 240,22.82705l48,0l0,341.33907l-48,0c-48,0 -144,0 -240,0c-96,0 -192,0 -288,0c-96,0 -192,0 -288,0c-96,0 -192,0 -288,0c-96,0 -192,0 -240,0l-48,0l0,-477.8747z" fill="#0099ff"/>
  </g>
 </g>

</svg>